<svg aria-hidden="true" style="position: absolute; width: 0; height: 0; overflow: hidden;" version="1.1" xmlns="http://www.w3.org/2000/svg" xmlns:xlink="http://www.w3.org/1999/xlink">
<defs>
<symbol id="icon-cross-small" viewBox="0 0 32 32">
<path stroke-linejoin="round" stroke-linecap="round" stroke-miterlimit="4" stroke-width="3.5556" d="M25.333 6.667l-18.667 18.667M6.667 6.667l18.667 18.667"></path>
</symbol>
<symbol id="icon-heart" viewBox="0 0 32 32">
<path fill="none" stroke="#f6b83d" style="stroke: var(--color1, #f6b83d)" stroke-linejoin="round" stroke-linecap="round" stroke-miterlimit="4" stroke-width="2.6667" d="M27.788 6.147c-0.681-0.681-1.49-1.222-2.38-1.591s-1.844-0.559-2.807-0.559c-0.963 0-1.917 0.19-2.807 0.559s-1.699 0.909-2.38 1.591l-1.413 1.413-1.413-1.413c-1.376-1.376-3.241-2.148-5.187-2.148s-3.811 0.773-5.187 2.148c-1.376 1.376-2.148 3.241-2.148 5.187s0.773 3.811 2.148 5.187l11.787 11.787 11.787-11.787c0.681-0.681 1.222-1.49 1.591-2.38s0.558-1.844 0.558-2.807-0.19-1.917-0.558-2.807c-0.369-0.89-0.909-1.699-1.591-2.38z"></path>
</symbol>
<symbol id="icon-edit" viewBox="0 0 32 32">
<path fill="none" stroke="#f6b83d" style="stroke: var(--color1, #f6b83d)" stroke-linejoin="round" stroke-linecap="round" stroke-miterlimit="4" stroke-width="2.6667" d="M22.667 4c0.35-0.35 0.766-0.628 1.223-0.817s0.948-0.287 1.443-0.287c0.495 0 0.986 0.098 1.443 0.287s0.873 0.467 1.223 0.817c0.35 0.35 0.628 0.766 0.817 1.224s0.287 0.948 0.287 1.443c0 0.495-0.098 0.986-0.287 1.443s-0.467 0.873-0.817 1.223l-18 18-7.333 2 2-7.333 18-18z"></path>
</symbol>
<symbol id="icon-plus" viewBox="0 0 32 32">
<path fill="none" stroke="#fff" style="stroke: var(--color2, #fff)" stroke-linejoin="round" stroke-linecap="round" stroke-miterlimit="4" stroke-width="2.6667" d="M16 6.667v18.667"></path>
<path fill="none" stroke="#fff" style="stroke: var(--color2, #fff)" stroke-linejoin="round" stroke-linecap="round" stroke-miterlimit="4" stroke-width="2.6667" d="M6.667 16h18.667"></path>
</symbol>
<symbol id="icon-trash" viewBox="0 0 32 32">
<path fill="none" stroke="#f6b83d" style="stroke: var(--color1, #f6b83d)" stroke-linejoin="round" stroke-linecap="round" stroke-miterlimit="4" stroke-width="2.6667" d="M4 8h24"></path>
<path fill="none" stroke="#f6b83d" style="stroke: var(--color1, #f6b83d)" stroke-linejoin="round" stroke-linecap="round" stroke-miterlimit="4" stroke-width="2.6667" d="M25.333 8v18.667c0 0.707-0.281 1.386-0.781 1.886s-1.178 0.781-1.886 0.781h-13.333c-0.707 0-1.386-0.281-1.886-0.781s-0.781-1.178-0.781-1.886v-18.667M10.667 8v-2.667c0-0.707 0.281-1.386 0.781-1.886s1.178-0.781 1.886-0.781h5.333c0.707 0 1.386 0.281 1.886 0.781s0.781 1.178 0.781 1.886v2.667"></path>
<path fill="none" stroke="#f6b83d" style="stroke: var(--color1, #f6b83d)" stroke-linejoin="round" stroke-linecap="round" stroke-miterlimit="4" stroke-width="2.6667" d="M13.333 14.667v8"></path>
<path fill="none" stroke="#f6b83d" style="stroke: var(--color1, #f6b83d)" stroke-linejoin="round" stroke-linecap="round" stroke-miterlimit="4" stroke-width="2.6667" d="M18.667 14.667v8"></path>
</symbol>
<symbol id="icon-logo-1" viewBox="0 0 106 32">
<path fill="#fff" style="fill: var(--color1, #fff)" d="M9.169 25.461c-1.466 0-2.694-0.348-3.687-1.043s-1.739-1.642-2.24-2.838c-0.501-1.206-0.751-2.555-0.751-4.049 0-1.512 0.25-2.866 0.751-4.063s1.234-2.138 2.198-2.824c0.974-0.696 2.175-1.043 3.603-1.043 1.419 0 2.648 0.348 3.687 1.043 1.048 0.686 1.86 1.628 2.435 2.824 0.575 1.187 0.863 2.542 0.863 4.063 0 1.503-0.283 2.852-0.849 4.049s-1.363 2.143-2.393 2.838c-1.030 0.696-2.235 1.043-3.617 1.043zM1.92 31.722v-21.704h2.963v10.546h0.417v11.158h-3.381zM8.654 22.456c0.872 0 1.591-0.218 2.157-0.654s0.983-1.025 1.252-1.767c0.278-0.751 0.417-1.586 0.417-2.504 0-0.909-0.139-1.735-0.417-2.477-0.278-0.751-0.71-1.345-1.294-1.781-0.584-0.445-1.326-0.668-2.226-0.668-0.853 0-1.549 0.209-2.087 0.626-0.538 0.408-0.937 0.983-1.197 1.725-0.25 0.733-0.376 1.591-0.376 2.574 0 0.974 0.125 1.832 0.376 2.574 0.26 0.742 0.663 1.322 1.21 1.739 0.557 0.408 1.285 0.612 2.184 0.612zM24.813 25.461c-1.521 0-2.857-0.329-4.007-0.988s-2.050-1.572-2.699-2.741c-0.64-1.169-0.96-2.514-0.96-4.035 0-1.642 0.315-3.065 0.946-4.271 0.631-1.215 1.507-2.157 2.63-2.824s2.421-1.002 3.896-1.002c1.558 0 2.88 0.366 3.965 1.099 1.095 0.723 1.906 1.748 2.435 3.075s0.728 2.889 0.598 4.689h-3.325v-1.224c-0.009-1.632-0.297-2.824-0.863-3.576s-1.456-1.127-2.671-1.127c-1.373 0-2.393 0.427-3.061 1.28-0.668 0.844-1.002 2.082-1.002 3.715 0 1.521 0.334 2.699 1.002 3.534s1.642 1.252 2.922 1.252c0.826 0 1.535-0.181 2.129-0.543 0.603-0.371 1.067-0.904 1.391-1.6l3.311 1.002c-0.575 1.354-1.465 2.407-2.671 3.158-1.197 0.751-2.518 1.127-3.965 1.127zM19.637 18.463v-2.532h10.337v2.532h-10.337zM42.415 25.043c-0.993 0.185-1.966 0.264-2.922 0.237-0.946-0.018-1.795-0.19-2.546-0.515-0.751-0.334-1.322-0.858-1.711-1.572-0.343-0.649-0.524-1.312-0.543-1.99s-0.028-1.442-0.028-2.296v-13.064h3.339v12.87c0 0.603 0.005 1.132 0.014 1.586 0.019 0.455 0.116 0.825 0.292 1.113 0.334 0.557 0.867 0.867 1.6 0.932s1.567 0.028 2.504-0.111v2.81zM31.938 12.647v-2.63h10.477v2.63h-10.477zM44.811 25.043v-20.452h3.353v20.452h-3.353z"></path>
<path fill="#fff" style="fill: var(--color1, #fff)" d="M63.297 9.762c-1.892-2.233-5.046-2.834-7.416-0.789s-2.704 5.464-0.842 7.883c1.192 1.549 4.245 4.422 6.286 6.287 0.678 0.62 1.017 0.93 1.424 1.054 0.349 0.107 0.748 0.107 1.097 0 0.406-0.124 0.745-0.434 1.424-1.054 2.041-1.865 5.094-4.738 6.286-6.287 1.861-2.419 1.568-5.86-0.842-7.883s-5.524-1.444-7.416 0.789z"></path>
<path fill="#fff" style="fill: var(--color1, #fff)" d="M81.141 25.043l-5.454-15.026h3.353l3.784 10.894 3.77-10.894h3.367l-5.454 15.026h-3.367zM97.634 25.461c-1.521 0-2.857-0.329-4.007-0.988s-2.050-1.572-2.699-2.741c-0.64-1.169-0.96-2.514-0.96-4.035 0-1.642 0.315-3.065 0.946-4.271 0.631-1.215 1.507-2.157 2.63-2.824s2.421-1.002 3.896-1.002c1.558 0 2.88 0.366 3.965 1.099 1.094 0.723 1.906 1.748 2.435 3.075s0.728 2.889 0.598 4.689h-3.325v-1.224c-0.009-1.632-0.297-2.824-0.863-3.576s-1.456-1.127-2.671-1.127c-1.373 0-2.393 0.427-3.061 1.28-0.668 0.844-1.002 2.082-1.002 3.715 0 1.521 0.334 2.699 1.002 3.534s1.642 1.252 2.922 1.252c0.825 0 1.535-0.181 2.129-0.543 0.603-0.371 1.067-0.904 1.391-1.6l3.311 1.002c-0.575 1.354-1.466 2.407-2.671 3.158-1.197 0.751-2.518 1.127-3.965 1.127zM92.458 18.463v-2.532h10.337v2.532h-10.337z"></path>
</symbol>
<symbol id="icon-logo" viewBox="0 0 105 32">
<path fill="#262626" style="fill: var(--color1, #262626)" d="M9.226 25.42c-1.475 0-2.711-0.35-3.71-1.050s-1.75-1.652-2.254-2.856c-0.504-1.213-0.756-2.571-0.756-4.074 0-1.521 0.252-2.884 0.756-4.088s1.241-2.151 2.212-2.842c0.98-0.7 2.189-1.050 3.626-1.050 1.428 0 2.665 0.35 3.71 1.050 1.055 0.691 1.871 1.638 2.45 2.842 0.579 1.195 0.868 2.557 0.868 4.088 0 1.512-0.285 2.87-0.854 4.074s-1.372 2.156-2.408 2.856c-1.036 0.7-2.249 1.050-3.64 1.050zM1.932 31.72v-21.84h2.982v10.612h0.42v11.228h-3.402zM8.708 22.396c0.877 0 1.601-0.219 2.17-0.658s0.989-1.031 1.26-1.778c0.28-0.756 0.42-1.596 0.42-2.52 0-0.915-0.14-1.745-0.42-2.492-0.28-0.756-0.714-1.353-1.302-1.792-0.588-0.448-1.335-0.672-2.24-0.672-0.859 0-1.559 0.21-2.1 0.63-0.541 0.411-0.943 0.989-1.204 1.736-0.252 0.737-0.378 1.601-0.378 2.59 0 0.98 0.126 1.843 0.378 2.59 0.261 0.747 0.667 1.33 1.218 1.75 0.56 0.411 1.293 0.616 2.198 0.616zM24.968 25.42c-1.531 0-2.875-0.331-4.032-0.994s-2.063-1.582-2.716-2.758c-0.644-1.176-0.966-2.529-0.966-4.060 0-1.652 0.317-3.085 0.952-4.298 0.635-1.223 1.517-2.17 2.646-2.842s2.436-1.008 3.92-1.008c1.568 0 2.898 0.369 3.99 1.106 1.101 0.728 1.918 1.759 2.45 3.094s0.733 2.907 0.602 4.718h-3.346v-1.232c-0.009-1.643-0.299-2.842-0.868-3.598s-1.465-1.134-2.688-1.134c-1.381 0-2.408 0.429-3.080 1.288-0.672 0.849-1.008 2.095-1.008 3.738 0 1.531 0.336 2.716 1.008 3.556s1.652 1.26 2.94 1.26c0.831 0 1.545-0.182 2.142-0.546 0.607-0.373 1.073-0.91 1.4-1.61l3.332 1.008c-0.579 1.363-1.475 2.422-2.688 3.178-1.204 0.756-2.534 1.134-3.99 1.134zM19.76 18.378v-2.548h10.402v2.548h-10.402zM42.68 25c-0.999 0.187-1.979 0.266-2.94 0.238-0.952-0.019-1.806-0.191-2.562-0.518-0.756-0.336-1.33-0.863-1.722-1.582-0.345-0.653-0.527-1.321-0.546-2.002s-0.028-1.451-0.028-2.31v-13.146h3.36v12.95c0 0.607 0.005 1.139 0.014 1.596 0.019 0.457 0.117 0.831 0.294 1.12 0.336 0.56 0.873 0.873 1.61 0.938s1.577 0.028 2.52-0.112v2.828zM32.138 12.526v-2.646h10.542v2.646h-10.542zM45.091 25v-20.58h3.374v20.58h-3.374z"></path>
<path fill="#f6b83d" style="fill: var(--color2, #f6b83d)" d="M62.494 10.434c-1.839-2.172-4.907-2.756-7.211-0.767s-2.629 5.314-0.819 7.666c1.159 1.506 4.128 4.3 6.113 6.114 0.66 0.603 0.989 0.904 1.384 1.025 0.34 0.104 0.728 0.104 1.067 0 0.395-0.121 0.725-0.422 1.384-1.025 1.985-1.814 4.954-4.608 6.113-6.114 1.81-2.352 1.525-5.698-0.819-7.666s-5.372-1.405-7.211 0.767z"></path>
<path fill="#262626" style="fill: var(--color1, #262626)" d="M80.048 25l-5.488-15.12h3.374l3.808 10.962 3.794-10.962h3.388l-5.488 15.12h-3.388zM96.644 25.42c-1.531 0-2.875-0.331-4.032-0.994s-2.063-1.582-2.716-2.758c-0.644-1.176-0.966-2.529-0.966-4.060 0-1.652 0.317-3.085 0.952-4.298 0.635-1.223 1.517-2.17 2.646-2.842s2.436-1.008 3.92-1.008c1.568 0 2.898 0.369 3.99 1.106 1.101 0.728 1.918 1.759 2.45 3.094s0.732 2.907 0.602 4.718h-3.346v-1.232c-0.010-1.643-0.299-2.842-0.868-3.598s-1.465-1.134-2.688-1.134c-1.381 0-2.408 0.429-3.080 1.288-0.672 0.849-1.008 2.095-1.008 3.738 0 1.531 0.336 2.716 1.008 3.556s1.652 1.26 2.94 1.26c0.831 0 1.545-0.182 2.142-0.546 0.607-0.373 1.073-0.91 1.4-1.61l3.332 1.008c-0.579 1.363-1.475 2.422-2.688 3.178-1.204 0.756-2.534 1.134-3.99 1.134zM91.436 18.378v-2.548h10.402v2.548h-10.402z"></path>
</symbol>
<symbol id="icon-check" viewBox="0 0 32 32">
<path fill="none" stroke="#08aa83" style="stroke: var(--color4, #08aa83)" stroke-linejoin="round" stroke-linecap="round" stroke-miterlimit="4" stroke-width="2.1818" d="M26.667 9.333l-14.667 14.667-6.667-6.667"></path>
</symbol>
<symbol id="icon-eye" viewBox="0 0 32 32">
<path fill="none" stroke="#f6b83d" style="stroke: var(--color1, #f6b83d)" stroke-linejoin="round" stroke-linecap="round" stroke-miterlimit="4" stroke-width="2.9091" d="M1.332 16c0 0 5.333-10.667 14.667-10.667s14.667 10.667 14.667 10.667-5.333 10.667-14.667 10.667c-9.333 0-14.667-10.667-14.667-10.667z"></path>
<path fill="none" stroke="#f6b83d" style="stroke: var(--color1, #f6b83d)" stroke-linejoin="round" stroke-linecap="round" stroke-miterlimit="4" stroke-width="2.9091" d="M16 20c2.209 0 4-1.791 4-4s-1.791-4-4-4c-2.209 0-4 1.791-4 4s1.791 4 4 4z"></path>
</symbol>
<symbol id="icon-eye-off" viewBox="0 0 32 32">
<path fill="none" stroke="#f6b83d" style="stroke: var(--color1, #f6b83d)" stroke-linejoin="round" stroke-linecap="round" stroke-miterlimit="4" stroke-width="2.9091" d="M23.922 23.92c-2.279 1.737-5.055 2.7-7.92 2.747-9.333 0-14.667-10.667-14.667-10.667 1.659-3.091 3.959-5.791 6.747-7.92M13.202 5.653c0.918-0.215 1.857-0.322 2.8-0.32 9.333 0 14.667 10.667 14.667 10.667-0.809 1.514-1.775 2.94-2.88 4.253M18.828 18.827c-0.366 0.393-0.808 0.708-1.298 0.927s-1.020 0.336-1.557 0.346c-0.537 0.009-1.071-0.089-1.569-0.291s-0.951-0.5-1.33-0.88c-0.38-0.38-0.679-0.832-0.88-1.33s-0.3-1.032-0.29-1.569c0.009-0.537 0.127-1.067 0.346-1.557s0.534-0.932 0.927-1.298"></path>
<path fill="none" stroke="#f6b83d" style="stroke: var(--color1, #f6b83d)" stroke-linejoin="round" stroke-linecap="round" stroke-miterlimit="4" stroke-width="2.9091" d="M1.335 1.333l29.333 29.333"></path>
</symbol>
<symbol id="icon-calendar" viewBox="0 0 32 32">
<path stroke-linejoin="round" stroke-linecap="round" stroke-miterlimit="4" stroke-width="2.88" d="M25.333 5.333h-18.667c-1.473 0-2.667 1.194-2.667 2.667v18.667c0 1.473 1.194 2.667 2.667 2.667h18.667c1.473 0 2.667-1.194 2.667-2.667v-18.667c0-1.473-1.194-2.667-2.667-2.667z"></path>
<path stroke-linejoin="round" stroke-linecap="round" stroke-miterlimit="4" stroke-width="2.88" d="M21.333 2.667v5.333"></path>
<path stroke-linejoin="round" stroke-linecap="round" stroke-miterlimit="4" stroke-width="2.88" d="M10.667 2.667v5.333"></path>
<path stroke-linejoin="round" stroke-linecap="round" stroke-miterlimit="4" stroke-width="2.88" d="M4 13.333h24"></path>
</symbol>
<symbol id="icon-star" viewBox="0 0 32 32">
<path fill="#ffc531" style="fill: var(--color5, #ffc531); stroke: var(--color5, #ffc531)" stroke="#ffc531" stroke-linejoin="miter" stroke-linecap="butt" stroke-miterlimit="4" stroke-width="2.4" d="M12.4 9.394l3.6-6.822 3.6 6.822c0.318 0.603 0.899 1.025 1.571 1.141l7.601 1.315-5.376 5.532c-0.475 0.489-0.697 1.171-0.6 1.846l1.098 7.635-6.922-3.404c-0.612-0.301-1.329-0.301-1.941 0l-6.922 3.404 1.098-7.635c0.097-0.675-0.125-1.357-0.6-1.846l-5.376-5.532 7.601-1.315c0.672-0.116 1.252-0.538 1.571-1.141zM29.035 11.579v0zM7.767 27.031c0 0 0 0 0 0h-0z"></path>
</symbol>
<symbol id="icon-user" viewBox="0 0 32 32">
<path fill="#f6b83d" style="fill: var(--color1, #f6b83d); stroke: var(--color1, #f6b83d)" stroke="#f6b83d" stroke-linejoin="round" stroke-linecap="round" stroke-miterlimit="4" stroke-width="2.6667" d="M16 20c-4.227 0-7.986 2.041-10.379 5.208-0.515 0.682-0.773 1.022-0.764 1.483 0.006 0.356 0.23 0.805 0.51 1.025 0.362 0.284 0.865 0.284 1.869 0.284h17.527c1.005 0 1.507 0 1.869-0.284 0.28-0.22 0.503-0.669 0.51-1.025 0.008-0.461-0.249-0.801-0.764-1.483-2.393-3.167-6.152-5.208-10.379-5.208z"></path>
<path fill="#f6b83d" style="fill: var(--color1, #f6b83d); stroke: var(--color1, #f6b83d)" stroke="#f6b83d" stroke-linejoin="round" stroke-linecap="round" stroke-miterlimit="4" stroke-width="2.6667" d="M16 16c3.314 0 6-2.686 6-6s-2.686-6-6-6c-3.314 0-6 2.686-6 6s2.686 6 6 6z"></path>
</symbol>
<symbol id="icon-user-white" viewBox="0 0 32 32">
<path fill="#fff" style="fill: var(--color2, #fff); stroke: var(--color2, #fff)" stroke="#fff" stroke-linejoin="round" stroke-linecap="round" stroke-miterlimit="4" stroke-width="3.5556" d="M16.001 20c-4.227 0-7.986 2.041-10.379 5.208-0.515 0.682-0.773 1.022-0.764 1.483 0.007 0.356 0.23 0.805 0.51 1.025 0.362 0.284 0.865 0.284 1.869 0.284h17.527c1.004 0 1.507 0 1.869-0.284 0.28-0.22 0.503-0.669 0.51-1.025 0.009-0.461-0.249-0.801-0.764-1.483-2.393-3.167-6.152-5.208-10.379-5.208z"></path>
<path fill="#fff" style="fill: var(--color2, #fff); stroke: var(--color2, #fff)" stroke="#fff" stroke-linejoin="round" stroke-linecap="round" stroke-miterlimit="4" stroke-width="3.5556" d="M16 16c3.314 0 6-2.686 6-6s-2.686-6-6-6c-3.314 0-6 2.686-6 6s2.686 6 6 6z"></path>
</symbol>
<symbol id="icon-chevron-down" viewBox="0 0 32 32">
<path stroke-linejoin="round" stroke-linecap="round" stroke-miterlimit="4" stroke-width="3.5556" d="M8 12l8 8 8-8"></path>
</symbol>
<symbol id="icon-search" viewBox="0 0 32 32">
<path stroke-linejoin="round" stroke-linecap="round" stroke-miterlimit="4" stroke-width="3.5556" d="M14.667 25.333c5.891 0 10.667-4.776 10.667-10.667s-4.776-10.667-10.667-10.667c-5.891 0-10.667 4.776-10.667 10.667s4.776 10.667 10.667 10.667z"></path>
<path stroke-linejoin="round" stroke-linecap="round" stroke-miterlimit="4" stroke-width="3.5556" d="M28.001 28l-5.8-5.8"></path>
</symbol>
<symbol id="icon-group" viewBox="0 0 32 32">
<path fill="#fff" style="fill: var(--color2, #fff)" d="M10.259 8.436c-1.276-0.498-2.68-0.561-3.996-0.18s-2.468 1.187-3.279 2.291c-0.811 1.104-1.235 2.444-1.206 3.813s0.509 2.691 1.365 3.759c0.857 1.069 2.042 1.825 3.372 2.151s2.731 0.204 3.985-0.348c1.254-0.551 2.29-1.501 2.949-2.702s0.903-2.585 0.694-3.939c-0.018-0.115-0.013-0.233 0.015-0.346s0.078-0.22 0.147-0.314c0.069-0.094 0.156-0.174 0.256-0.234s0.21-0.101 0.326-0.119c0.115-0.018 0.233-0.013 0.346 0.015s0.22 0.078 0.314 0.147c0.094 0.069 0.174 0.156 0.234 0.256s0.101 0.21 0.119 0.326c0.268 1.74-0.046 3.52-0.893 5.064s-2.18 2.765-3.792 3.473c-1.612 0.709-3.413 0.865-5.123 0.446s-3.234-1.391-4.335-2.765c-1.101-1.374-1.718-3.073-1.755-4.833s0.508-3.484 1.551-4.903c1.043-1.419 2.524-2.454 4.215-2.945s3.497-0.41 5.137 0.231c0.11 0.041 0.211 0.104 0.297 0.185s0.155 0.177 0.203 0.285c0.048 0.107 0.074 0.223 0.077 0.341s-0.018 0.235-0.061 0.344c-0.043 0.11-0.107 0.21-0.189 0.294s-0.179 0.152-0.288 0.199c-0.108 0.047-0.224 0.071-0.342 0.072s-0.234-0.020-0.343-0.064z"></path>
<path fill="#fff" style="fill: var(--color2, #fff)" d="M7.108 29.334v-7.108c0-0.236 0.094-0.462 0.26-0.628s0.393-0.26 0.628-0.26c0.236 0 0.462 0.094 0.628 0.26s0.26 0.393 0.26 0.628v7.108c0 0.236-0.094 0.462-0.26 0.628s-0.393 0.26-0.628 0.26c-0.236 0-0.462-0.094-0.628-0.26s-0.26-0.393-0.26-0.628z"></path>
<path fill="#fff" style="fill: var(--color2, #fff)" d="M4.443 24.891c0-0.236 0.094-0.462 0.26-0.628s0.393-0.26 0.628-0.26h5.331c0.236 0 0.462 0.094 0.628 0.26s0.26 0.393 0.26 0.628c0 0.236-0.094 0.462-0.26 0.628s-0.393 0.26-0.628 0.26h-5.331c-0.236 0-0.462-0.093-0.628-0.26s-0.26-0.393-0.26-0.628zM20.349 8.243c-0.985-0.278-2.023-0.309-3.022-0.090s-1.929 0.681-2.707 1.346c-0.778 0.665-1.38 1.511-1.753 2.464s-0.505 1.983-0.384 2.999c0.014 0.116 0.006 0.234-0.026 0.347s-0.085 0.218-0.157 0.31c-0.072 0.092-0.162 0.169-0.264 0.227s-0.214 0.094-0.331 0.108c-0.116 0.014-0.234 0.005-0.347-0.027s-0.218-0.086-0.31-0.158c-0.092-0.073-0.168-0.163-0.225-0.265s-0.093-0.215-0.106-0.331c-0.208-1.749 0.168-3.517 1.068-5.030s2.275-2.688 3.91-3.34c1.636-0.652 3.441-0.747 5.135-0.269s3.184 1.503 4.237 2.914c1.053 1.411 1.611 3.131 1.587 4.891s-0.629 3.464-1.72 4.846c-1.091 1.382-2.608 2.365-4.315 2.797s-3.509 0.288-5.126-0.409c-0.107-0.046-0.204-0.113-0.286-0.197s-0.145-0.183-0.189-0.291c-0.087-0.219-0.084-0.463 0.009-0.68s0.269-0.387 0.488-0.474c0.219-0.087 0.464-0.084 0.68 0.009 0.782 0.337 1.624 0.51 2.476 0.508s1.693-0.179 2.473-0.519c0.78-0.34 1.482-0.837 2.063-1.46s1.027-1.358 1.311-2.16c0.285-0.802 0.402-1.654 0.344-2.503s-0.289-1.678-0.68-2.434-0.933-1.424-1.593-1.962c-0.659-0.538-1.422-0.935-2.241-1.167z"></path>
<path fill="#fff" style="fill: var(--color2, #fff)" d="M23.807 9.97c-0.167-0.167-0.26-0.393-0.26-0.628s0.094-0.462 0.26-0.628l6.664-6.664c0.082-0.085 0.18-0.153 0.289-0.199s0.225-0.071 0.343-0.072c0.118-0.001 0.235 0.021 0.344 0.066s0.208 0.111 0.292 0.194c0.084 0.083 0.149 0.183 0.194 0.292s0.067 0.226 0.066 0.344c-0.001 0.118-0.026 0.235-0.072 0.343s-0.114 0.206-0.199 0.288l-6.664 6.664c-0.167 0.167-0.393 0.26-0.628 0.26s-0.462-0.094-0.628-0.26z"></path>
<path fill="#fff" style="fill: var(--color2, #fff)" d="M31.031 8.009c-0.117-0.002-0.232-0.026-0.339-0.072s-0.204-0.113-0.286-0.196c-0.081-0.084-0.146-0.182-0.189-0.291s-0.065-0.224-0.063-0.341l0.044-3.531-3.531 0.044c-0.236 0.003-0.463-0.088-0.632-0.252s-0.265-0.389-0.268-0.625 0.088-0.463 0.252-0.632c0.164-0.169 0.389-0.265 0.625-0.268l5.354-0.068-0.068 5.354c-0.002 0.117-0.026 0.232-0.072 0.339s-0.113 0.204-0.196 0.286c-0.084 0.081-0.182 0.146-0.291 0.189s-0.224 0.065-0.341 0.063z"></path>
</symbol>
<symbol id="icon-male" viewBox="0 0 32 32">
<path fill="#54adff" style="fill: var(--color2, #54adff)" opacity="0.1" d="M16 0c8.837 0 16 7.163 16 16s-7.163 16-16 16c-8.837 0-16-7.163-16-16s7.163-16 16-16z"></path>
<path fill="none" stroke="#54adff" style="stroke: var(--color2, #54adff)" stroke-linejoin="round" stroke-linecap="round" stroke-miterlimit="4" stroke-width="1.5" d="M16.001 15.167c-2.301 0-4.167 1.865-4.167 4.167s1.865 4.167 4.167 4.167c2.301 0 4.167-1.866 4.167-4.167s-1.866-4.167-4.167-4.167zM16.001 15.167v-6.667M16.001 8.5l3.333 3.333M16.001 8.5l-3.333 3.333"></path>
</symbol>
<symbol id="icon-male-active" viewBox="0 0 32 32">
<path fill="#54adff" style="fill: var(--color3, #54adff)" d="M16 0c8.837 0 16 7.163 16 16s-7.163 16-16 16c-8.837 0-16-7.163-16-16s7.163-16 16-16z"></path>
<path fill="none" stroke="#fff" style="stroke: var(--color2, #fff)" stroke-linejoin="round" stroke-linecap="round" stroke-miterlimit="4" stroke-width="1.2" d="M16 15.2c-2.209 0-4 1.791-4 4s1.791 4 4 4c2.209 0 4-1.791 4-4s-1.791-4-4-4zM16 15.2v-6.4M16 8.8l3.2 3.2M16 8.8l-3.2 3.2"></path>
</symbol>
<symbol id="icon-female" viewBox="0 0 32 32">
<path fill="#f43f5e" style="fill: var(--color1, #f43f5e)" opacity="0.1" d="M16 0c8.837 0 16 7.163 16 16s-7.163 16-16 16c-8.837 0-16-7.163-16-16s7.163-16 16-16z"></path>
<path fill="none" stroke="#f43f5e" style="stroke: var(--color1, #f43f5e)" stroke-linejoin="round" stroke-linecap="round" stroke-miterlimit="4" stroke-width="1.5" d="M16.001 16.833c2.301 0 4.167-1.865 4.167-4.167s-1.866-4.167-4.167-4.167c-2.301 0-4.167 1.865-4.167 4.167s1.865 4.167 4.167 4.167zM16.001 16.833v6.667M13.501 21h5"></path>
</symbol>

<symbol id="icon-female-active" viewBox="0 0 32 32">
<path fill="#f43f5e" style="fill: var(--color1, #f43f5e)" d="M16 0c8.837 0 16 7.163 16 16s-7.163 16-16 16c-8.837 0-16-7.163-16-16s7.163-16 16-16z"></path>
<path fill="none" stroke="#fff" style="stroke: var(--color2, #fff)" stroke-linejoin="round" stroke-linecap="round" stroke-miterlimit="4" stroke-width="1.2" d="M16 16.8c2.209 0 4-1.791 4-4s-1.791-4-4-4c-2.209 0-4 1.791-4 4s1.791 4 4 4zM16 16.8v6.4M13.6 20.8h4.8"></path>
</symbol>
<symbol id="icon-footprint" viewBox="0 0 32 32">
<path fill="#f6b83d" style="fill: var(--color1, #f6b83d)" d="M12.5 5c-1.070 0-2.002 0.608-2.594 1.438s-0.906 1.902-0.906 3.062c0 1.16 0.314 2.233 0.906 3.063s1.524 1.437 2.594 1.437c1.070 0 2.002-0.608 2.594-1.438s0.906-1.902 0.906-3.062c0-1.16-0.314-2.233-0.906-3.063s-1.524-1.437-2.594-1.437zM16 9.5c0 1.16 0.314 2.233 0.906 3.063s1.525 1.437 2.594 1.437c1.070 0 2.002-0.608 2.594-1.438s0.906-1.902 0.906-3.062c0-1.16-0.314-2.233-0.906-3.063s-1.524-1.437-2.594-1.437c-1.070 0-2.002 0.608-2.594 1.438s-0.906 1.902-0.906 3.062zM12.5 7c0.312 0 0.656 0.156 0.97 0.594 0.31 0.437 0.53 1.133 0.53 1.906s-0.22 1.47-0.53 1.906c-0.314 0.438-0.658 0.594-0.97 0.594s-0.656-0.156-0.97-0.594c-0.31-0.437-0.53-1.133-0.53-1.906s0.22-1.47 0.53-1.906c0.314-0.438 0.658-0.594 0.97-0.594zM19.5 7c0.312 0 0.656 0.156 0.97 0.594 0.31 0.437 0.53 1.133 0.53 1.906s-0.22 1.47-0.53 1.906c-0.314 0.438-0.658 0.594-0.97 0.594s-0.656-0.156-0.97-0.594c-0.31-0.437-0.53-1.133-0.53-1.906s0.22-1.47 0.53-1.906c0.314-0.438 0.658-0.594 0.97-0.594zM7.5 12c-1.070 0-2.002 0.608-2.594 1.438s-0.906 1.902-0.906 3.062c0 1.16 0.314 2.233 0.906 3.063s1.524 1.437 2.594 1.437c1.070 0 2.002-0.608 2.594-1.438s0.906-1.902 0.906-3.062c0-1.16-0.314-2.233-0.906-3.063s-1.524-1.437-2.594-1.437zM24.5 12c-1.070 0-2.002 0.608-2.594 1.438s-0.906 1.902-0.906 3.062c0 1.16 0.314 2.233 0.906 3.063s1.524 1.437 2.594 1.437c1.070 0 2.002-0.608 2.594-1.438s0.906-1.902 0.906-3.062c0-1.16-0.314-2.233-0.906-3.063s-1.524-1.437-2.594-1.437zM7.5 14c0.312 0 0.656 0.156 0.97 0.594 0.31 0.437 0.53 1.133 0.53 1.906s-0.22 1.47-0.53 1.906c-0.314 0.438-0.658 0.594-0.97 0.594s-0.656-0.156-0.97-0.594c-0.31-0.436-0.53-1.133-0.53-1.906s0.22-1.47 0.53-1.906c0.314-0.438 0.658-0.594 0.97-0.594zM24.5 14c0.312 0 0.656 0.156 0.97 0.594 0.31 0.437 0.53 1.133 0.53 1.906s-0.22 1.47-0.53 1.906c-0.314 0.438-0.658 0.594-0.97 0.594s-0.656-0.156-0.97-0.594c-0.31-0.437-0.53-1.133-0.53-1.906s0.22-1.47 0.53-1.906c0.314-0.438 0.658-0.594 0.97-0.594zM16 16c-1.333 0-2.263 0.865-2.72 1.625-0.454 0.76-0.734 1.392-1 1.656-0.153 0.157-1.118 0.52-2.124 1.033-0.503 0.257-1.010 0.6-1.437 1.125-0.43 0.525-0.72 1.25-0.72 2.063 0 1.92 1.58 3.5 3.5 3.5 0.866 0 1.77-0.28 2.655-0.53 0.889-0.256 1.846-0.472 1.846-0.472s0.957 0.216 1.844 0.47c0.886 0.25 1.79 0.53 2.656 0.53 1.92 0 3.5-1.58 3.5-3.5 0-0.794-0.293-1.52-0.72-2.030-0.425-0.513-0.937-0.83-1.436-1.095-1-0.53-1.983-0.95-2.125-1.094-0.24-0.237-0.51-0.89-0.97-1.654-0.459-0.767-1.409-1.627-2.749-1.627zM16 18c0.66 0 0.733 0.16 1.030 0.656 0.3 0.495 0.524 1.336 1.25 2.063 0.825 0.82 1.867 1 2.626 1.404 0.38 0.202 0.67 0.417 0.844 0.625 0.173 0.207 0.25 0.396 0.25 0.75 0 0.84-0.66 1.5-1.5 1.5-0.29 0-1.224-0.22-2.094-0.47-0.87-0.247-1.59-0.53-2.406-0.53s-1.536 0.283-2.406 0.53c-0.87 0.25-1.804 0.47-2.094 0.47-0.84 0-1.5-0.66-1.5-1.5 0-0.403 0.084-0.61 0.25-0.814 0.166-0.203 0.472-0.404 0.844-0.593 0.744-0.38 1.78-0.53 2.625-1.375 0.733-0.737 0.953-1.605 1.25-2.095 0.292-0.49 0.362-0.625 1.030-0.625l0.001 0.004z"></path>
</symbol>
<symbol id="icon-multiple" viewBox="0 0 32 32">
<path fill="#fff4df" style="fill: var(--color2, #fff4df)" d="M16 0c8.837 0 16 7.163 16 16s-7.163 16-16 16c-8.837 0-16-7.163-16-16s7.163-16 16-16z"></path>
<path fill="#f6b83d" style="fill: var(--color3, #f6b83d)" d="M13.309 12.454c-0.598-0.234-1.256-0.263-1.873-0.084s-1.157 0.556-1.537 1.074-0.579 1.146-0.565 1.788c0.014 0.642 0.238 1.261 0.64 1.762s0.957 0.855 1.581 1.008c0.623 0.153 1.28 0.096 1.868-0.163s1.074-0.704 1.382-1.267c0.309-0.563 0.423-1.212 0.325-1.847-0.008-0.054-0.006-0.109 0.007-0.162s0.036-0.103 0.069-0.147c0.032-0.044 0.073-0.081 0.12-0.11s0.099-0.047 0.153-0.056c0.054-0.008 0.109-0.006 0.162 0.007s0.103 0.036 0.147 0.069c0.044 0.032 0.082 0.073 0.11 0.12s0.047 0.099 0.056 0.153c0.126 0.816-0.021 1.65-0.419 2.374s-1.022 1.296-1.777 1.628c-0.756 0.332-1.6 0.406-2.401 0.209s-1.516-0.652-2.032-1.296-0.805-1.441-0.823-2.266c-0.017-0.825 0.238-1.633 0.727-2.298s1.183-1.15 1.976-1.38c0.793-0.23 1.639-0.192 2.408 0.108 0.052 0.019 0.099 0.049 0.139 0.087s0.072 0.083 0.095 0.134c0.023 0.050 0.035 0.105 0.036 0.16s-0.008 0.11-0.028 0.161c-0.020 0.051-0.050 0.098-0.088 0.138s-0.084 0.071-0.135 0.093c-0.051 0.022-0.105 0.033-0.16 0.034s-0.11-0.009-0.161-0.030z"></path>
<path fill="#f6b83d" style="fill: var(--color3, #f6b83d)" d="M11.832 22.25v-3.332c0-0.11 0.044-0.216 0.122-0.294s0.184-0.122 0.294-0.122c0.111 0 0.216 0.044 0.294 0.122s0.122 0.184 0.122 0.294v3.332c0 0.11-0.044 0.216-0.122 0.294s-0.184 0.122-0.294 0.122c-0.11 0-0.216-0.044-0.294-0.122s-0.122-0.184-0.122-0.294z"></path>
<path fill="#f6b83d" style="fill: var(--color3, #f6b83d)" d="M10.582 20.168c0-0.11 0.044-0.216 0.122-0.294s0.184-0.122 0.294-0.122h2.499c0.111 0 0.216 0.044 0.294 0.122s0.122 0.184 0.122 0.294c0 0.11-0.044 0.216-0.122 0.294s-0.184 0.122-0.294 0.122h-2.499c-0.11 0-0.216-0.044-0.294-0.122s-0.122-0.184-0.122-0.294zM18.038 12.364c-0.462-0.13-0.948-0.145-1.417-0.042s-0.904 0.319-1.269 0.631-0.647 0.708-0.822 1.155c-0.175 0.447-0.236 0.929-0.18 1.406 0.007 0.055 0.003 0.11-0.012 0.163s-0.040 0.102-0.073 0.146c-0.034 0.043-0.076 0.079-0.124 0.106s-0.101 0.044-0.155 0.050-0.11 0.002-0.162-0.013c-0.053-0.015-0.102-0.040-0.145-0.074s-0.079-0.076-0.105-0.124c-0.027-0.048-0.044-0.101-0.050-0.155-0.097-0.82 0.079-1.649 0.501-2.358s1.066-1.26 1.833-1.566c0.767-0.306 1.613-0.35 2.407-0.126s1.493 0.704 1.986 1.366 0.755 1.467 0.744 2.293c-0.011 0.825-0.295 1.624-0.806 2.272s-1.223 1.109-2.023 1.311-1.645 0.135-2.403-0.192c-0.050-0.022-0.096-0.053-0.134-0.092s-0.068-0.085-0.088-0.136c-0.041-0.103-0.039-0.217 0.004-0.319s0.126-0.181 0.229-0.222c0.103-0.041 0.217-0.039 0.319 0.005 0.366 0.158 0.761 0.239 1.16 0.238s0.794-0.084 1.159-0.243c0.366-0.16 0.695-0.392 0.967-0.684s0.481-0.637 0.615-1.012c0.134-0.376 0.188-0.775 0.161-1.174s-0.136-0.786-0.319-1.141c-0.183-0.354-0.437-0.668-0.746-0.92s-0.667-0.438-1.051-0.547z"></path>
<path fill="#f6b83d" style="fill: var(--color3, #f6b83d)" d="M19.659 13.173c-0.078-0.078-0.122-0.184-0.122-0.294s0.044-0.216 0.122-0.294l3.124-3.124c0.038-0.040 0.084-0.072 0.135-0.093s0.105-0.033 0.161-0.034c0.055-0 0.11 0.010 0.161 0.031s0.098 0.052 0.137 0.091c0.039 0.039 0.070 0.086 0.091 0.137s0.032 0.106 0.031 0.161c-0 0.055-0.012 0.11-0.034 0.161s-0.054 0.097-0.093 0.135l-3.124 3.124c-0.078 0.078-0.184 0.122-0.294 0.122s-0.216-0.044-0.294-0.122z"></path>
<path fill="#f6b83d" style="fill: var(--color3, #f6b83d)" d="M23.046 12.254c-0.055-0.001-0.109-0.012-0.159-0.034s-0.096-0.053-0.134-0.092c-0.038-0.039-0.068-0.085-0.089-0.136s-0.030-0.105-0.030-0.16l0.021-1.655-1.655 0.021c-0.11 0.001-0.217-0.041-0.296-0.118s-0.124-0.182-0.126-0.293c-0.002-0.11 0.041-0.217 0.118-0.296s0.183-0.124 0.293-0.126l2.51-0.032-0.032 2.51c-0.001 0.055-0.012 0.109-0.034 0.159s-0.053 0.096-0.092 0.134-0.085 0.068-0.136 0.088c-0.051 0.020-0.105 0.030-0.16 0.030z"></path>
</symbol>
<symbol id="icon-multiple-active" viewBox="0 0 32 32">
<path fill="#f6b83d" style="fill: var(--color1, #f6b83d)" d="M16 0c8.837 0 16 7.163 16 16s-7.163 16-16 16c-8.837 0-16-7.163-16-16s7.163-16 16-16z"></path>
<path fill="#fff" style="fill: var(--color2, #fff)" d="M13.417 12.596c-0.574-0.224-1.206-0.253-1.798-0.081s-1.111 0.534-1.476 1.031c-0.365 0.497-0.556 1.1-0.543 1.716s0.229 1.211 0.614 1.692c0.386 0.481 0.919 0.821 1.518 0.968s1.229 0.092 1.793-0.156c0.564-0.248 1.031-0.676 1.327-1.216s0.406-1.163 0.312-1.773c-0.008-0.052-0.006-0.105 0.007-0.156s0.035-0.099 0.066-0.141c0.031-0.042 0.070-0.078 0.115-0.105s0.095-0.045 0.147-0.053c0.052-0.008 0.105-0.006 0.156 0.007s0.099 0.035 0.141 0.066c0.042 0.031 0.078 0.070 0.105 0.115s0.045 0.095 0.053 0.147c0.121 0.783-0.021 1.584-0.402 2.279s-0.981 1.244-1.706 1.563c-0.725 0.319-1.536 0.389-2.305 0.201s-1.455-0.626-1.951-1.244c-0.496-0.618-0.773-1.383-0.79-2.175s0.229-1.568 0.698-2.206c0.469-0.639 1.136-1.104 1.897-1.325s1.574-0.184 2.312 0.104c0.050 0.019 0.095 0.047 0.134 0.083s0.070 0.080 0.091 0.128c0.022 0.048 0.033 0.101 0.035 0.154s-0.008 0.106-0.027 0.155c-0.019 0.049-0.048 0.094-0.085 0.132s-0.081 0.068-0.129 0.089c-0.049 0.021-0.101 0.032-0.154 0.033s-0.105-0.009-0.155-0.029z"></path>
<path fill="#fff" style="fill: var(--color2, #fff)" d="M11.998 22v-3.199c0-0.106 0.042-0.208 0.117-0.283s0.177-0.117 0.283-0.117c0.106 0 0.208 0.042 0.283 0.117s0.117 0.177 0.117 0.283v3.199c0 0.106-0.042 0.208-0.117 0.283s-0.177 0.117-0.283 0.117c-0.106 0-0.208-0.042-0.283-0.117s-0.117-0.177-0.117-0.283z"></path>
<path fill="#fff" style="fill: var(--color2, #fff)" d="M10.799 20.001c0-0.106 0.042-0.208 0.117-0.283s0.177-0.117 0.283-0.117h2.399c0.106 0 0.208 0.042 0.283 0.117s0.117 0.177 0.117 0.283c0 0.106-0.042 0.208-0.117 0.283s-0.177 0.117-0.283 0.117h-2.399c-0.106 0-0.208-0.042-0.283-0.117s-0.117-0.177-0.117-0.283zM17.957 12.509c-0.443-0.125-0.91-0.139-1.36-0.040s-0.868 0.307-1.218 0.606-0.621 0.68-0.789 1.109c-0.168 0.429-0.227 0.892-0.173 1.35 0.006 0.052 0.003 0.105-0.012 0.156s-0.038 0.098-0.071 0.14c-0.032 0.041-0.073 0.076-0.119 0.102s-0.096 0.042-0.149 0.048c-0.052 0.006-0.105 0.002-0.156-0.012s-0.098-0.039-0.139-0.071c-0.041-0.033-0.076-0.073-0.101-0.119s-0.042-0.097-0.048-0.149c-0.093-0.787 0.076-1.583 0.481-2.264s1.024-1.209 1.76-1.503c0.736-0.294 1.548-0.336 2.311-0.121s1.433 0.676 1.907 1.311c0.474 0.635 0.725 1.409 0.714 2.201s-0.283 1.559-0.774 2.181-1.174 1.064-1.942 1.259c-0.768 0.194-1.579 0.13-2.307-0.184-0.048-0.021-0.092-0.051-0.128-0.088s-0.065-0.082-0.085-0.131c-0.039-0.098-0.038-0.209 0.004-0.306s0.121-0.174 0.219-0.213c0.099-0.039 0.209-0.038 0.306 0.004 0.352 0.152 0.731 0.229 1.114 0.228s0.762-0.080 1.113-0.234c0.351-0.153 0.667-0.377 0.928-0.657s0.462-0.611 0.59-0.972c0.128-0.361 0.181-0.744 0.155-1.127s-0.13-0.755-0.306-1.095-0.42-0.641-0.717-0.883c-0.297-0.242-0.64-0.421-1.009-0.525z"></path>
<path fill="#fff" style="fill: var(--color2, #fff)" d="M19.513 13.286c-0.075-0.075-0.117-0.177-0.117-0.283s0.042-0.208 0.117-0.283l2.999-2.999c0.037-0.038 0.081-0.069 0.13-0.090s0.101-0.032 0.154-0.032c0.053-0 0.106 0.010 0.155 0.030s0.094 0.050 0.131 0.087c0.038 0.038 0.067 0.082 0.087 0.131s0.030 0.102 0.030 0.155c-0 0.053-0.012 0.106-0.032 0.154s-0.051 0.093-0.090 0.13l-2.999 2.999c-0.075 0.075-0.177 0.117-0.283 0.117s-0.208-0.042-0.283-0.117z"></path>
<path fill="#fff" style="fill: var(--color2, #fff)" d="M22.764 12.404c-0.053-0.001-0.104-0.012-0.153-0.032s-0.092-0.051-0.129-0.088c-0.037-0.038-0.066-0.082-0.085-0.131s-0.029-0.101-0.028-0.153l0.020-1.589-1.589 0.020c-0.106 0.001-0.208-0.039-0.284-0.113s-0.119-0.175-0.121-0.281c-0.001-0.106 0.039-0.208 0.113-0.284s0.175-0.119 0.281-0.121l2.409-0.030-0.030 2.409c-0.001 0.052-0.012 0.104-0.032 0.153s-0.051 0.092-0.088 0.129-0.082 0.066-0.131 0.085c-0.049 0.020-0.101 0.029-0.153 0.028z"></path>
</symbol>
<symbol id="icon-burger-menu" viewBox="0 0 32 32">
<path stroke-linejoin="round" stroke-linecap="round" stroke-miterlimit="4" stroke-width="2.6667" d="M4 16h24"></path>
<path stroke-linejoin="round" stroke-linecap="round" stroke-miterlimit="4" stroke-width="2.6667" d="M4 8h24"></path>
<path stroke-linejoin="round" stroke-linecap="round" stroke-miterlimit="4" stroke-width="2.6667" d="M4 24h24"></path>
</symbol>
<symbol id="icon-x-white" viewBox="0 0 32 32">
<path fill="none" stroke="#fff" style="stroke: var(--color1, #fff)" stroke-linejoin="round" stroke-linecap="round" stroke-miterlimit="4" stroke-width="3" d="M24 8l-16 16"></path>
<path fill="none" stroke="#fff" style="stroke: var(--color1, #fff)" stroke-linejoin="round" stroke-linecap="round" stroke-miterlimit="4" stroke-width="3" d="M8 8l16 16"></path>
</symbol>
</defs>
</svg>
