<svg aria-hidden="true" style="position: absolute; width: 0; height: 0; overflow: hidden;" version="1.1" xmlns="http://www.w3.org/2000/svg" xmlns:xlink="http://www.w3.org/1999/xlink">
<defs>
<symbol id="icon-cross-small" viewBox="0 0 32 32">
<path stroke-linejoin="round" stroke-linecap="round" stroke-miterlimit="4" stroke-width="3.5556" d="M25.333 6.667l-18.667 18.667M6.667 6.667l18.667 18.667"></path>
</symbol>
<symbol id="icon-heart" viewBox="0 0 32 32">
<path fill="none" stroke="#f6b83d" style="stroke: var(--color1, #f6b83d)" stroke-linejoin="round" stroke-linecap="round" stroke-miterlimit="4" stroke-width="2.6667" d="M27.788 6.147c-0.681-0.681-1.49-1.222-2.38-1.591s-1.844-0.559-2.807-0.559c-0.963 0-1.917 0.19-2.807 0.559s-1.699 0.909-2.38 1.591l-1.413 1.413-1.413-1.413c-1.376-1.376-3.241-2.148-5.187-2.148s-3.811 0.773-5.187 2.148c-1.376 1.376-2.148 3.241-2.148 5.187s0.773 3.811 2.148 5.187l11.787 11.787 11.787-11.787c0.681-0.681 1.222-1.49 1.591-2.38s0.558-1.844 0.558-2.807-0.19-1.917-0.558-2.807c-0.369-0.89-0.909-1.699-1.591-2.38z"></path>
</symbol>
<symbol id="icon-edit" viewBox="0 0 32 32">
<path fill="none" stroke="#f6b83d" style="stroke: var(--color1, #f6b83d)" stroke-linejoin="round" stroke-linecap="round" stroke-miterlimit="4" stroke-width="2.6667" d="M22.667 4c0.35-0.35 0.766-0.628 1.223-0.817s0.948-0.287 1.443-0.287c0.495 0 0.986 0.098 1.443 0.287s0.873 0.467 1.223 0.817c0.35 0.35 0.628 0.766 0.817 1.224s0.287 0.948 0.287 1.443c0 0.495-0.098 0.986-0.287 1.443s-0.467 0.873-0.817 1.223l-18 18-7.333 2 2-7.333 18-18z"></path>
</symbol>
<symbol id="icon-trash" viewBox="0 0 32 32">
<path fill="none" stroke="#f6b83d" style="stroke: var(--color1, #f6b83d)" stroke-linejoin="round" stroke-linecap="round" stroke-miterlimit="4" stroke-width="2.6667" d="M4 8h24"></path>
<path fill="none" stroke="#f6b83d" style="stroke: var(--color1, #f6b83d)" stroke-linejoin="round" stroke-linecap="round" stroke-miterlimit="4" stroke-width="2.6667" d="M25.333 8v18.667c0 0.707-0.281 1.386-0.781 1.886s-1.178 0.781-1.886 0.781h-13.333c-0.707 0-1.386-0.281-1.886-0.781s-0.781-1.178-0.781-1.886v-18.667M10.667 8v-2.667c0-0.707 0.281-1.386 0.781-1.886s1.178-0.781 1.886-0.781h5.333c0.707 0 1.386 0.281 1.886 0.781s0.781 1.178 0.781 1.886v2.667"></path>
<path fill="none" stroke="#f6b83d" style="stroke: var(--color1, #f6b83d)" stroke-linejoin="round" stroke-linecap="round" stroke-miterlimit="4" stroke-width="2.6667" d="M13.333 14.667v8"></path>
<path fill="none" stroke="#f6b83d" style="stroke: var(--color1, #f6b83d)" stroke-linejoin="round" stroke-linecap="round" stroke-miterlimit="4" stroke-width="2.6667" d="M18.667 14.667v8"></path>
</symbol>
<symbol id="icon-logo-1" viewBox="0 0 32 32">
<path fill="#fff" style="fill: var(--color2, #fff)" d="M2.832 18.844c-0.454 0-0.833-0.106-1.137-0.317s-0.534-0.499-0.689-0.862c-0.152-0.363-0.228-0.773-0.228-1.23s0.076-0.866 0.228-1.23c0.152-0.363 0.376-0.651 0.672-0.862s0.661-0.317 1.095-0.317c0.437 0 0.817 0.104 1.141 0.313s0.575 0.495 0.752 0.858c0.18 0.361 0.271 0.773 0.271 1.238 0 0.456-0.089 0.866-0.266 1.23-0.175 0.363-0.42 0.651-0.735 0.862s-0.683 0.317-1.103 0.317zM0.583 20.746v-6.593h1.014v3.128h0.144v3.466h-1.158zM2.646 17.821c0.248 0 0.451-0.062 0.609-0.186s0.275-0.29 0.351-0.499c0.076-0.211 0.114-0.445 0.114-0.702 0-0.254-0.039-0.485-0.118-0.693-0.079-0.211-0.201-0.379-0.368-0.503-0.163-0.127-0.373-0.19-0.63-0.19-0.24 0-0.434 0.058-0.583 0.173-0.147 0.116-0.254 0.278-0.321 0.486s-0.101 0.451-0.101 0.727c0 0.276 0.034 0.518 0.101 0.727s0.177 0.37 0.33 0.486c0.155 0.116 0.361 0.173 0.617 0.173zM7.65 18.844c-0.468 0-0.88-0.1-1.238-0.3-0.355-0.203-0.634-0.48-0.837-0.833-0.2-0.355-0.3-0.761-0.3-1.217 0-0.499 0.099-0.933 0.296-1.302s0.469-0.655 0.816-0.858c0.347-0.206 0.745-0.309 1.196-0.309 0.479 0 0.886 0.113 1.221 0.338s0.583 0.542 0.744 0.951c0.161 0.409 0.217 0.889 0.169 1.441h-1.137v-0.423c0-0.465-0.075-0.799-0.224-1.002-0.147-0.206-0.387-0.309-0.723-0.309-0.392 0-0.68 0.12-0.866 0.359-0.183 0.237-0.275 0.587-0.275 1.052 0 0.425 0.092 0.755 0.275 0.989 0.186 0.231 0.458 0.347 0.816 0.347 0.225 0 0.418-0.049 0.579-0.148s0.283-0.241 0.368-0.427l1.15 0.33c-0.172 0.417-0.444 0.741-0.816 0.972-0.369 0.231-0.773 0.347-1.213 0.347zM6.137 16.756v-0.854h3.026v0.854h-3.026zM13.072 18.717c-0.316 0.059-0.626 0.085-0.93 0.076-0.302-0.006-0.572-0.058-0.811-0.156-0.237-0.101-0.417-0.263-0.541-0.486-0.113-0.209-0.172-0.42-0.178-0.634-0.006-0.217-0.008-0.462-0.008-0.735v-3.897h1.15v3.829c0 0.177 0.001 0.338 0.004 0.482 0.006 0.141 0.035 0.254 0.089 0.338 0.101 0.161 0.263 0.248 0.486 0.262s0.469 0.003 0.74-0.034v0.955zM9.826 15.040v-0.888h3.246v0.888h-3.246zM13.835 18.717v-6.213h1.15v6.213h-1.15z"></path>
<path fill="#fff" style="fill: var(--color2, #fff)" d="M19.168 14.32c-0.555-0.656-1.481-0.832-2.177-0.232s-0.794 1.604-0.247 2.314c0.35 0.455 1.246 1.298 1.845 1.846 0.199 0.182 0.299 0.273 0.418 0.309 0.103 0.031 0.22 0.031 0.322 0 0.119-0.037 0.219-0.128 0.418-0.309 0.599-0.548 1.495-1.391 1.845-1.846 0.546-0.71 0.46-1.72-0.247-2.314s-1.622-0.424-2.177 0.232z"></path>
<path fill="#fff" style="fill: var(--color2, #fff)" d="M24.467 18.717l-1.657-4.565h1.019l1.15 3.309 1.145-3.309h1.023l-1.657 4.565h-1.023zM29.477 18.844c-0.462 0-0.868-0.1-1.217-0.3s-0.623-0.478-0.82-0.833c-0.194-0.355-0.292-0.764-0.292-1.226 0-0.499 0.096-0.931 0.287-1.297 0.192-0.369 0.458-0.655 0.799-0.858s0.735-0.304 1.183-0.304c0.473 0 0.875 0.111 1.205 0.334 0.332 0.22 0.579 0.531 0.74 0.934s0.221 0.878 0.182 1.424h-1.010v-0.372c-0.003-0.496-0.090-0.858-0.262-1.086s-0.442-0.342-0.812-0.342c-0.417 0-0.727 0.13-0.93 0.389-0.203 0.256-0.304 0.633-0.304 1.128 0 0.462 0.101 0.82 0.304 1.073s0.499 0.38 0.888 0.38c0.251 0 0.466-0.055 0.647-0.165 0.183-0.113 0.324-0.275 0.423-0.486l1.006 0.304c-0.175 0.411-0.445 0.731-0.811 0.959-0.363 0.228-0.765 0.342-1.205 0.342zM27.905 16.718v-0.769h3.14v0.769h-3.14z"></path>
</symbol>
<symbol id="icon-logo" viewBox="0 0 105 32">
<path fill="#262626" style="fill: var(--color1, #262626)" d="M9.226 25.42c-1.475 0-2.711-0.35-3.71-1.050s-1.75-1.652-2.254-2.856c-0.504-1.213-0.756-2.571-0.756-4.074 0-1.521 0.252-2.884 0.756-4.088s1.241-2.151 2.212-2.842c0.98-0.7 2.189-1.050 3.626-1.050 1.428 0 2.665 0.35 3.71 1.050 1.055 0.691 1.871 1.638 2.45 2.842 0.579 1.195 0.868 2.557 0.868 4.088 0 1.512-0.285 2.87-0.854 4.074s-1.372 2.156-2.408 2.856c-1.036 0.7-2.249 1.050-3.64 1.050zM1.932 31.72v-21.84h2.982v10.612h0.42v11.228h-3.402zM8.708 22.396c0.877 0 1.601-0.219 2.17-0.658s0.989-1.031 1.26-1.778c0.28-0.756 0.42-1.596 0.42-2.52 0-0.915-0.14-1.745-0.42-2.492-0.28-0.756-0.714-1.353-1.302-1.792-0.588-0.448-1.335-0.672-2.24-0.672-0.859 0-1.559 0.21-2.1 0.63-0.541 0.411-0.943 0.989-1.204 1.736-0.252 0.737-0.378 1.601-0.378 2.59 0 0.98 0.126 1.843 0.378 2.59 0.261 0.747 0.667 1.33 1.218 1.75 0.56 0.411 1.293 0.616 2.198 0.616zM24.968 25.42c-1.531 0-2.875-0.331-4.032-0.994s-2.063-1.582-2.716-2.758c-0.644-1.176-0.966-2.529-0.966-4.060 0-1.652 0.317-3.085 0.952-4.298 0.635-1.223 1.517-2.17 2.646-2.842s2.436-1.008 3.92-1.008c1.568 0 2.898 0.369 3.99 1.106 1.101 0.728 1.918 1.759 2.45 3.094s0.733 2.907 0.602 4.718h-3.346v-1.232c-0.009-1.643-0.299-2.842-0.868-3.598s-1.465-1.134-2.688-1.134c-1.381 0-2.408 0.429-3.080 1.288-0.672 0.849-1.008 2.095-1.008 3.738 0 1.531 0.336 2.716 1.008 3.556s1.652 1.26 2.94 1.26c0.831 0 1.545-0.182 2.142-0.546 0.607-0.373 1.073-0.91 1.4-1.61l3.332 1.008c-0.579 1.363-1.475 2.422-2.688 3.178-1.204 0.756-2.534 1.134-3.99 1.134zM19.76 18.378v-2.548h10.402v2.548h-10.402zM42.68 25c-0.999 0.187-1.979 0.266-2.94 0.238-0.952-0.019-1.806-0.191-2.562-0.518-0.756-0.336-1.33-0.863-1.722-1.582-0.345-0.653-0.527-1.321-0.546-2.002s-0.028-1.451-0.028-2.31v-13.146h3.36v12.95c0 0.607 0.005 1.139 0.014 1.596 0.019 0.457 0.117 0.831 0.294 1.12 0.336 0.56 0.873 0.873 1.61 0.938s1.577 0.028 2.52-0.112v2.828zM32.138 12.526v-2.646h10.542v2.646h-10.542zM45.091 25v-20.58h3.374v20.58h-3.374z"></path>
<path fill="#f6b83d" style="fill: var(--color2, #f6b83d)" d="M62.494 10.434c-1.839-2.172-4.907-2.756-7.211-0.767s-2.629 5.314-0.819 7.666c1.159 1.506 4.128 4.3 6.113 6.114 0.66 0.603 0.989 0.904 1.384 1.025 0.34 0.104 0.728 0.104 1.067 0 0.395-0.121 0.725-0.422 1.384-1.025 1.985-1.814 4.954-4.608 6.113-6.114 1.81-2.352 1.525-5.698-0.819-7.666s-5.372-1.405-7.211 0.767z"></path>
<path fill="#262626" style="fill: var(--color1, #262626)" d="M80.048 25l-5.488-15.12h3.374l3.808 10.962 3.794-10.962h3.388l-5.488 15.12h-3.388zM96.644 25.42c-1.531 0-2.875-0.331-4.032-0.994s-2.063-1.582-2.716-2.758c-0.644-1.176-0.966-2.529-0.966-4.060 0-1.652 0.317-3.085 0.952-4.298 0.635-1.223 1.517-2.17 2.646-2.842s2.436-1.008 3.92-1.008c1.568 0 2.898 0.369 3.99 1.106 1.101 0.728 1.918 1.759 2.45 3.094s0.732 2.907 0.602 4.718h-3.346v-1.232c-0.010-1.643-0.299-2.842-0.868-3.598s-1.465-1.134-2.688-1.134c-1.381 0-2.408 0.429-3.080 1.288-0.672 0.849-1.008 2.095-1.008 3.738 0 1.531 0.336 2.716 1.008 3.556s1.652 1.26 2.94 1.26c0.831 0 1.545-0.182 2.142-0.546 0.607-0.373 1.073-0.91 1.4-1.61l3.332 1.008c-0.579 1.363-1.475 2.422-2.688 3.178-1.204 0.756-2.534 1.134-3.99 1.134zM91.436 18.378v-2.548h10.402v2.548h-10.402z"></path>
</symbol>
<symbol id="icon-check" viewBox="0 0 32 32">
<path fill="none" stroke="#08aa83" style="stroke: var(--color4, #08aa83)" stroke-linejoin="round" stroke-linecap="round" stroke-miterlimit="4" stroke-width="2.1818" d="M26.667 9.333l-14.667 14.667-6.667-6.667"></path>
</symbol>
<symbol id="icon-eye" viewBox="0 0 32 32">
<path fill="none" stroke="#f6b83d" style="stroke: var(--color1, #f6b83d)" stroke-linejoin="round" stroke-linecap="round" stroke-miterlimit="4" stroke-width="2.9091" d="M1.332 16c0 0 5.333-10.667 14.667-10.667s14.667 10.667 14.667 10.667-5.333 10.667-14.667 10.667c-9.333 0-14.667-10.667-14.667-10.667z"></path>
<path fill="none" stroke="#f6b83d" style="stroke: var(--color1, #f6b83d)" stroke-linejoin="round" stroke-linecap="round" stroke-miterlimit="4" stroke-width="2.9091" d="M16 20c2.209 0 4-1.791 4-4s-1.791-4-4-4c-2.209 0-4 1.791-4 4s1.791 4 4 4z"></path>
</symbol>
<symbol id="icon-eye-off" viewBox="0 0 32 32">
<path fill="none" stroke="#f6b83d" style="stroke: var(--color1, #f6b83d)" stroke-linejoin="round" stroke-linecap="round" stroke-miterlimit="4" stroke-width="2.9091" d="M23.922 23.92c-2.279 1.737-5.055 2.7-7.92 2.747-9.333 0-14.667-10.667-14.667-10.667 1.659-3.091 3.959-5.791 6.747-7.92M13.202 5.653c0.918-0.215 1.857-0.322 2.8-0.32 9.333 0 14.667 10.667 14.667 10.667-0.809 1.514-1.775 2.94-2.88 4.253M18.828 18.827c-0.366 0.393-0.808 0.708-1.298 0.927s-1.020 0.336-1.557 0.346c-0.537 0.009-1.071-0.089-1.569-0.291s-0.951-0.5-1.33-0.88c-0.38-0.38-0.679-0.832-0.88-1.33s-0.3-1.032-0.29-1.569c0.009-0.537 0.127-1.067 0.346-1.557s0.534-0.932 0.927-1.298"></path>
<path fill="none" stroke="#f6b83d" style="stroke: var(--color1, #f6b83d)" stroke-linejoin="round" stroke-linecap="round" stroke-miterlimit="4" stroke-width="2.9091" d="M1.335 1.333l29.333 29.333"></path>
</symbol>
<symbol id="icon-calendar" viewBox="0 0 32 32">
<path stroke-linejoin="round" stroke-linecap="round" stroke-miterlimit="4" stroke-width="2.88" d="M25.333 5.333h-18.667c-1.473 0-2.667 1.194-2.667 2.667v18.667c0 1.473 1.194 2.667 2.667 2.667h18.667c1.473 0 2.667-1.194 2.667-2.667v-18.667c0-1.473-1.194-2.667-2.667-2.667z"></path>
<path stroke-linejoin="round" stroke-linecap="round" stroke-miterlimit="4" stroke-width="2.88" d="M21.333 2.667v5.333"></path>
<path stroke-linejoin="round" stroke-linecap="round" stroke-miterlimit="4" stroke-width="2.88" d="M10.667 2.667v5.333"></path>
<path stroke-linejoin="round" stroke-linecap="round" stroke-miterlimit="4" stroke-width="2.88" d="M4 13.333h24"></path>
</symbol>
<symbol id="icon-star" viewBox="0 0 32 32">
<path fill="#ffc531" style="fill: var(--color5, #ffc531); stroke: var(--color5, #ffc531)" stroke="#ffc531" stroke-linejoin="miter" stroke-linecap="butt" stroke-miterlimit="4" stroke-width="2.4" d="M12.4 9.394l3.6-6.822 3.6 6.822c0.318 0.603 0.899 1.025 1.571 1.141l7.601 1.315-5.376 5.532c-0.475 0.489-0.697 1.171-0.6 1.846l1.098 7.635-6.922-3.404c-0.612-0.301-1.329-0.301-1.941 0l-6.922 3.404 1.098-7.635c0.097-0.675-0.125-1.357-0.6-1.846l-5.376-5.532 7.601-1.315c0.672-0.116 1.252-0.538 1.571-1.141zM29.035 11.579v0zM7.767 27.031c0 0 0 0 0 0h-0z"></path>
</symbol>
<symbol id="icon-user" viewBox="0 0 32 32">
<path fill="#f6b83d" style="fill: var(--color1, #f6b83d); stroke: var(--color1, #f6b83d)" stroke="#f6b83d" stroke-linejoin="round" stroke-linecap="round" stroke-miterlimit="4" stroke-width="2.6667" d="M16 20c-4.227 0-7.986 2.041-10.379 5.208-0.515 0.682-0.773 1.022-0.764 1.483 0.006 0.356 0.23 0.805 0.51 1.025 0.362 0.284 0.865 0.284 1.869 0.284h17.527c1.005 0 1.507 0 1.869-0.284 0.28-0.22 0.503-0.669 0.51-1.025 0.008-0.461-0.249-0.801-0.764-1.483-2.393-3.167-6.152-5.208-10.379-5.208z"></path>
<path fill="#f6b83d" style="fill: var(--color1, #f6b83d); stroke: var(--color1, #f6b83d)" stroke="#f6b83d" stroke-linejoin="round" stroke-linecap="round" stroke-miterlimit="4" stroke-width="2.6667" d="M16 16c3.314 0 6-2.686 6-6s-2.686-6-6-6c-3.314 0-6 2.686-6 6s2.686 6 6 6z"></path>
</symbol>
<symbol id="icon-chevron-down" viewBox="0 0 32 32">
<path stroke-linejoin="round" stroke-linecap="round" stroke-miterlimit="4" stroke-width="3.5556" d="M8 12l8 8 8-8"></path>
</symbol>
<symbol id="icon-search" viewBox="0 0 32 32">
<path stroke-linejoin="round" stroke-linecap="round" stroke-miterlimit="4" stroke-width="3.5556" d="M14.667 25.333c5.891 0 10.667-4.776 10.667-10.667s-4.776-10.667-10.667-10.667c-5.891 0-10.667 4.776-10.667 10.667s4.776 10.667 10.667 10.667z"></path>
<path stroke-linejoin="round" stroke-linecap="round" stroke-miterlimit="4" stroke-width="3.5556" d="M28.001 28l-5.8-5.8"></path>
</symbol>
<symbol id="icon-group" viewBox="0 0 32 32">
<path fill="#fff" style="fill: var(--color2, #fff)" d="M10.259 8.436c-1.276-0.498-2.68-0.561-3.996-0.18s-2.468 1.187-3.279 2.291c-0.811 1.104-1.235 2.444-1.206 3.813s0.509 2.691 1.365 3.759c0.857 1.069 2.042 1.825 3.372 2.151s2.731 0.204 3.985-0.348c1.254-0.551 2.29-1.501 2.949-2.702s0.903-2.585 0.694-3.939c-0.018-0.115-0.013-0.233 0.015-0.346s0.078-0.22 0.147-0.314c0.069-0.094 0.156-0.174 0.256-0.234s0.21-0.101 0.326-0.119c0.115-0.018 0.233-0.013 0.346 0.015s0.22 0.078 0.314 0.147c0.094 0.069 0.174 0.156 0.234 0.256s0.101 0.21 0.119 0.326c0.268 1.74-0.046 3.52-0.893 5.064s-2.18 2.765-3.792 3.473c-1.612 0.709-3.413 0.865-5.123 0.446s-3.234-1.391-4.335-2.765c-1.101-1.374-1.718-3.073-1.755-4.833s0.508-3.484 1.551-4.903c1.043-1.419 2.524-2.454 4.215-2.945s3.497-0.41 5.137 0.231c0.11 0.041 0.211 0.104 0.297 0.185s0.155 0.177 0.203 0.285c0.048 0.107 0.074 0.223 0.077 0.341s-0.018 0.235-0.061 0.344c-0.043 0.11-0.107 0.21-0.189 0.294s-0.179 0.152-0.288 0.199c-0.108 0.047-0.224 0.071-0.342 0.072s-0.234-0.020-0.343-0.064z"></path>
<path fill="#fff" style="fill: var(--color2, #fff)" d="M7.108 29.334v-7.108c0-0.236 0.094-0.462 0.26-0.628s0.393-0.26 0.628-0.26c0.236 0 0.462 0.094 0.628 0.26s0.26 0.393 0.26 0.628v7.108c0 0.236-0.094 0.462-0.26 0.628s-0.393 0.26-0.628 0.26c-0.236 0-0.462-0.094-0.628-0.26s-0.26-0.393-0.26-0.628z"></path>
<path fill="#fff" style="fill: var(--color2, #fff)" d="M4.443 24.891c0-0.236 0.094-0.462 0.26-0.628s0.393-0.26 0.628-0.26h5.331c0.236 0 0.462 0.094 0.628 0.26s0.26 0.393 0.26 0.628c0 0.236-0.094 0.462-0.26 0.628s-0.393 0.26-0.628 0.26h-5.331c-0.236 0-0.462-0.093-0.628-0.26s-0.26-0.393-0.26-0.628zM20.349 8.243c-0.985-0.278-2.023-0.309-3.022-0.090s-1.929 0.681-2.707 1.346c-0.778 0.665-1.38 1.511-1.753 2.464s-0.505 1.983-0.384 2.999c0.014 0.116 0.006 0.234-0.026 0.347s-0.085 0.218-0.157 0.31c-0.072 0.092-0.162 0.169-0.264 0.227s-0.214 0.094-0.331 0.108c-0.116 0.014-0.234 0.005-0.347-0.027s-0.218-0.086-0.31-0.158c-0.092-0.073-0.168-0.163-0.225-0.265s-0.093-0.215-0.106-0.331c-0.208-1.749 0.168-3.517 1.068-5.030s2.275-2.688 3.91-3.34c1.636-0.652 3.441-0.747 5.135-0.269s3.184 1.503 4.237 2.914c1.053 1.411 1.611 3.131 1.587 4.891s-0.629 3.464-1.72 4.846c-1.091 1.382-2.608 2.365-4.315 2.797s-3.509 0.288-5.126-0.409c-0.107-0.046-0.204-0.113-0.286-0.197s-0.145-0.183-0.189-0.291c-0.087-0.219-0.084-0.463 0.009-0.68s0.269-0.387 0.488-0.474c0.219-0.087 0.464-0.084 0.68 0.009 0.782 0.337 1.624 0.51 2.476 0.508s1.693-0.179 2.473-0.519c0.78-0.34 1.482-0.837 2.063-1.46s1.027-1.358 1.311-2.16c0.285-0.802 0.402-1.654 0.344-2.503s-0.289-1.678-0.68-2.434-0.933-1.424-1.593-1.962c-0.659-0.538-1.422-0.935-2.241-1.167z"></path>
<path fill="#fff" style="fill: var(--color2, #fff)" d="M23.807 9.97c-0.167-0.167-0.26-0.393-0.26-0.628s0.094-0.462 0.26-0.628l6.664-6.664c0.082-0.085 0.18-0.153 0.289-0.199s0.225-0.071 0.343-0.072c0.118-0.001 0.235 0.021 0.344 0.066s0.208 0.111 0.292 0.194c0.084 0.083 0.149 0.183 0.194 0.292s0.067 0.226 0.066 0.344c-0.001 0.118-0.026 0.235-0.072 0.343s-0.114 0.206-0.199 0.288l-6.664 6.664c-0.167 0.167-0.393 0.26-0.628 0.26s-0.462-0.094-0.628-0.26z"></path>
<path fill="#fff" style="fill: var(--color2, #fff)" d="M31.031 8.009c-0.117-0.002-0.232-0.026-0.339-0.072s-0.204-0.113-0.286-0.196c-0.081-0.084-0.146-0.182-0.189-0.291s-0.065-0.224-0.063-0.341l0.044-3.531-3.531 0.044c-0.236 0.003-0.463-0.088-0.632-0.252s-0.265-0.389-0.268-0.625 0.088-0.463 0.252-0.632c0.164-0.169 0.389-0.265 0.625-0.268l5.354-0.068-0.068 5.354c-0.002 0.117-0.026 0.232-0.072 0.339s-0.113 0.204-0.196 0.286c-0.084 0.081-0.182 0.146-0.291 0.189s-0.224 0.065-0.341 0.063z"></path>
</symbol>
<symbol id="icon-male" viewBox="0 0 32 32">
<path fill="none" stroke="#fff" style="stroke: var(--color2, #fff)" stroke-linejoin="round" stroke-linecap="round" stroke-miterlimit="4" stroke-width="2" d="M16 14.667c-3.682 0-6.667 2.985-6.667 6.667s2.985 6.667 6.667 6.667c3.682 0 6.667-2.985 6.667-6.667s-2.985-6.667-6.667-6.667zM16 14.667v-10.667M16 4l5.333 5.333M16 4l-5.333 5.333"></path>
</symbol>
<symbol id="icon-female" viewBox="0 0 32 32">
<path fill="none" stroke="#fff" style="stroke: var(--color2, #fff)" stroke-linejoin="round" stroke-linecap="round" stroke-miterlimit="4" stroke-width="2" d="M16 17.333c3.682 0 6.667-2.985 6.667-6.667s-2.985-6.667-6.667-6.667c-3.682 0-6.667 2.985-6.667 6.667s2.985 6.667 6.667 6.667zM16 17.333v10.667M12 24h8"></path>
</symbol>
</defs>
</svg>
